<svg width="39" height="28" viewBox="0 0 39 28" fill="none" xmlns="http://www.w3.org/2000/svg">
<path d="M23.0383 9.03337C23.0383 8.86254 23.0954 8.69883 23.2097 8.54223C23.324 8.38563 23.4526 8.27886 23.5954 8.22192C24.4526 7.90872 25.3311 7.66671 26.2311 7.49587C27.1311 7.32504 28.0668 7.23962 29.0383 7.23962C29.6668 7.23962 30.2811 7.27521 30.8811 7.3464C31.4811 7.41758 32.0668 7.52435 32.6383 7.66671C32.8097 7.72365 32.9668 7.83042 33.1097 7.98702C33.2526 8.14362 33.324 8.32157 33.324 8.52087C33.324 8.83407 33.2168 9.07608 33.0026 9.24692C32.7883 9.41775 32.524 9.46046 32.2097 9.37504C31.724 9.23268 31.2168 9.12591 30.6883 9.05473C30.1597 8.98355 29.6097 8.94796 29.0383 8.94796C28.2097 8.94796 27.4097 9.02626 26.6383 9.18285C25.8668 9.33945 25.1097 9.57435 24.3668 9.88754C23.9668 10.0299 23.6454 10.0228 23.4026 9.86619C23.1597 9.70959 23.0383 9.43199 23.0383 9.03337ZM23.0383 18.4292C23.0383 18.2584 23.0954 18.0875 23.2097 17.9167C23.324 17.7459 23.4526 17.632 23.5954 17.575C24.4526 17.2618 25.3311 17.027 26.2311 16.8704C27.1311 16.7138 28.0668 16.6355 29.0383 16.6355C29.6668 16.6355 30.2811 16.671 30.8811 16.7422C31.4811 16.8134 32.0668 16.9202 32.6383 17.0625C32.8097 17.1195 32.9668 17.2263 33.1097 17.3829C33.2526 17.5395 33.324 17.7174 33.324 17.9167C33.324 18.2299 33.2168 18.4719 33.0026 18.6427C32.7883 18.8136 32.524 18.8563 32.2097 18.7709C31.724 18.6285 31.2168 18.5217 30.6883 18.4506C30.1597 18.3794 29.6097 18.3438 29.0383 18.3438C28.2097 18.3438 27.4097 18.415 26.6383 18.5573C25.8668 18.6997 25.1097 18.9275 24.3668 19.2407C23.9668 19.383 23.6454 19.383 23.4026 19.2407C23.1597 19.0983 23.0383 18.8278 23.0383 18.4292ZM23.0383 13.7313C23.0383 13.5605 23.0954 13.3967 23.2097 13.2401C23.324 13.0835 23.4526 12.9768 23.5954 12.9198C24.4526 12.6066 25.3311 12.3646 26.2311 12.1938C27.1311 12.023 28.0668 11.9375 29.0383 11.9375C29.6668 11.9375 30.2811 11.9731 30.8811 12.0443C31.4811 12.1155 32.0668 12.2223 32.6383 12.3646C32.8097 12.4216 32.9668 12.5283 33.1097 12.6849C33.2526 12.8415 33.324 13.0195 33.324 13.2188C33.324 13.532 33.2168 13.774 33.0026 13.9448C32.7883 14.1157 32.524 14.1584 32.2097 14.073C31.724 13.9306 31.2168 13.8238 30.6883 13.7526C30.1597 13.6815 29.6097 13.6459 29.0383 13.6459C28.2097 13.6459 27.4097 13.7242 26.6383 13.8808C25.8668 14.0374 25.1097 14.2723 24.3668 14.5855C23.9668 14.7278 23.6454 14.7207 23.4026 14.5641C23.1597 14.4075 23.0383 14.1299 23.0383 13.7313ZM9.66685 22.1875C11.2097 22.1875 12.7026 22.3655 14.1454 22.7214C15.5883 23.0773 17.0097 23.6112 18.4097 24.323V6.0865C17.124 5.23233 15.7311 4.57035 14.2311 4.10056C12.7311 3.63077 11.2097 3.39587 9.66685 3.39587C8.58113 3.39587 7.51685 3.53112 6.47399 3.8016C5.43113 4.07209 4.38113 4.40664 3.32399 4.80525V23.3407C4.20971 22.9421 5.21685 22.6502 6.34542 22.4651C7.47399 22.2801 8.58113 22.1875 9.66685 22.1875ZM20.9811 24.323C22.4097 23.6112 23.8097 23.0773 25.1811 22.7214C26.5526 22.3655 28.0097 22.1875 29.5526 22.1875C30.6383 22.1875 31.7597 22.273 32.9168 22.4438C34.074 22.6146 35.0668 22.8424 35.8954 23.1271V4.80525C34.924 4.32122 33.8954 3.96532 32.8097 3.73754C31.724 3.50976 30.6383 3.39587 29.5526 3.39587C28.0097 3.39587 26.5168 3.63077 25.074 4.10056C23.6311 4.57035 22.2668 5.23233 20.9811 6.0865V24.323ZM19.6954 27.6969C19.4668 27.6969 19.2597 27.6756 19.074 27.6329C18.8883 27.5901 18.724 27.5118 18.5811 27.398C17.2383 26.5723 15.8097 25.9316 14.2954 25.4761C12.7811 25.0205 11.2383 24.7927 9.66685 24.7927C8.6097 24.7927 7.58113 24.9209 6.58113 25.1771C5.58113 25.4334 4.58113 25.7466 3.58113 26.1167C2.92399 26.4299 2.28828 26.3872 1.67399 25.9886C1.05971 25.59 0.752563 25.0205 0.752563 24.2803V4.50629C0.752563 4.07921 0.852563 3.68771 1.05256 3.33181C1.25256 2.97591 1.55256 2.6983 1.95256 2.499C3.15256 1.92955 4.40256 1.50959 5.70256 1.2391C7.00256 0.968617 8.32399 0.833374 9.66685 0.833374C11.4668 0.833374 13.2168 1.07539 14.9168 1.55942C16.6168 2.04344 18.2097 2.78372 19.6954 3.78025C21.1526 2.78372 22.7168 2.04344 24.3883 1.55942C26.0597 1.07539 27.7811 0.833374 29.5526 0.833374C30.8954 0.833374 32.2097 0.968617 33.4954 1.2391C34.7811 1.50959 36.024 1.92955 37.224 2.499C37.624 2.6983 37.9311 2.97591 38.1454 3.33181C38.3597 3.68771 38.4668 4.07921 38.4668 4.50629V24.2803C38.4668 25.0775 38.1454 25.6825 37.5026 26.0954C36.8597 26.5082 36.224 26.5153 35.5954 26.1167C34.624 25.7181 33.6383 25.3978 32.6383 25.1558C31.6383 24.9138 30.6097 24.7927 29.5526 24.7927C28.0097 24.7927 26.4954 25.0205 25.0097 25.4761C23.524 25.9316 22.124 26.5723 20.8097 27.398C20.6668 27.5118 20.5026 27.5901 20.3168 27.6329C20.1311 27.6756 19.924 27.6969 19.6954 27.6969Z" fill="url(#paint0_linear_11_78)"/>
<defs>
<linearGradient id="paint0_linear_11_78" x1="19.6097" y1="0.833374" x2="19.6097" y2="27.6969" gradientUnits="userSpaceOnUse">
<stop stop-color="#E36D6D"/>
<stop offset="0.9999" stop-color="#970A0A" stop-opacity="0.996875"/>
<stop offset="1" stop-color="#970A0A" stop-opacity="0"/>
</linearGradient>
</defs>
</svg>
