<svg width="42" height="41" viewBox="0 0 42 41" fill="none" xmlns="http://www.w3.org/2000/svg">
<path d="M24.0383 15.0334C24.0383 14.8625 24.0954 14.6988 24.2097 14.5422C24.324 14.3856 24.4526 14.2789 24.5954 14.2219C25.4526 13.9087 26.3311 13.6667 27.2311 13.4959C28.1311 13.325 29.0668 13.2396 30.0383 13.2396C30.6668 13.2396 31.2811 13.2752 31.8811 13.3464C32.4811 13.4176 33.0668 13.5243 33.6383 13.6667C33.8097 13.7237 33.9668 13.8304 34.1097 13.987C34.2526 14.1436 34.324 14.3216 34.324 14.5209C34.324 14.8341 34.2168 15.0761 34.0026 15.2469C33.7883 15.4177 33.524 15.4605 33.2097 15.375C32.724 15.2327 32.2168 15.1259 31.6883 15.0547C31.1597 14.9835 30.6097 14.948 30.0383 14.948C29.2097 14.948 28.4097 15.0263 27.6383 15.1829C26.8668 15.3395 26.1097 15.5743 25.3668 15.8875C24.9668 16.0299 24.6454 16.0228 24.4026 15.8662C24.1597 15.7096 24.0383 15.432 24.0383 15.0334ZM24.0383 24.4292C24.0383 24.2584 24.0954 24.0875 24.2097 23.9167C24.324 23.7459 24.4526 23.632 24.5954 23.575C25.4526 23.2618 26.3311 23.027 27.2311 22.8704C28.1311 22.7138 29.0668 22.6355 30.0383 22.6355C30.6668 22.6355 31.2811 22.671 31.8811 22.7422C32.4811 22.8134 33.0668 22.9202 33.6383 23.0625C33.8097 23.1195 33.9668 23.2263 34.1097 23.3829C34.2526 23.5395 34.324 23.7174 34.324 23.9167C34.324 24.2299 34.2168 24.4719 34.0026 24.6427C33.7883 24.8136 33.524 24.8563 33.2097 24.7709C32.724 24.6285 32.2168 24.5217 31.6883 24.4506C31.1597 24.3794 30.6097 24.3438 30.0383 24.3438C29.2097 24.3438 28.4097 24.415 27.6383 24.5573C26.8668 24.6997 26.1097 24.9275 25.3668 25.2407C24.9668 25.383 24.6454 25.383 24.4026 25.2407C24.1597 25.0983 24.0383 24.8278 24.0383 24.4292ZM24.0383 19.7313C24.0383 19.5605 24.0954 19.3967 24.2097 19.2401C24.324 19.0835 24.4526 18.9768 24.5954 18.9198C25.4526 18.6066 26.3311 18.3646 27.2311 18.1938C28.1311 18.023 29.0668 17.9375 30.0383 17.9375C30.6668 17.9375 31.2811 17.9731 31.8811 18.0443C32.4811 18.1155 33.0668 18.2223 33.6383 18.3646C33.8097 18.4216 33.9668 18.5283 34.1097 18.6849C34.2526 18.8415 34.324 19.0195 34.324 19.2188C34.324 19.532 34.2168 19.774 34.0026 19.9448C33.7883 20.1157 33.524 20.1584 33.2097 20.073C32.724 19.9306 32.2168 19.8238 31.6883 19.7526C31.1597 19.6815 30.6097 19.6459 30.0383 19.6459C29.2097 19.6459 28.4097 19.7242 27.6383 19.8808C26.8668 20.0374 26.1097 20.2723 25.3668 20.5855C24.9668 20.7278 24.6454 20.7207 24.4026 20.5641C24.1597 20.4075 24.0383 20.1299 24.0383 19.7313ZM10.6668 28.1875C12.2097 28.1875 13.7026 28.3655 15.1454 28.7214C16.5883 29.0773 18.0097 29.6112 19.4097 30.323V12.0865C18.124 11.2323 16.7311 10.5704 15.2311 10.1006C13.7311 9.63077 12.2097 9.39587 10.6668 9.39587C9.58113 9.39587 8.51685 9.53112 7.47399 9.8016C6.43113 10.0721 5.38113 10.4066 4.32399 10.8052V29.3407C5.20971 28.9421 6.21685 28.6502 7.34542 28.4651C8.47399 28.2801 9.58113 28.1875 10.6668 28.1875ZM21.9811 30.323C23.4097 29.6112 24.8097 29.0773 26.1811 28.7214C27.5526 28.3655 29.0097 28.1875 30.5526 28.1875C31.6383 28.1875 32.7597 28.273 33.9168 28.4438C35.074 28.6146 36.0668 28.8424 36.8954 29.1271V10.8052C35.924 10.3212 34.8954 9.96532 33.8097 9.73754C32.724 9.50976 31.6383 9.39587 30.5526 9.39587C29.0097 9.39587 27.5168 9.63077 26.074 10.1006C24.6311 10.5704 23.2668 11.2323 21.9811 12.0865V30.323ZM20.6954 33.6969C20.4668 33.6969 20.2597 33.6756 20.074 33.6329C19.8883 33.5901 19.724 33.5118 19.5811 33.398C18.2383 32.5723 16.8097 31.9316 15.2954 31.4761C13.7811 31.0205 12.2383 30.7927 10.6668 30.7927C9.6097 30.7927 8.58113 30.9209 7.58113 31.1771C6.58113 31.4334 5.58113 31.7466 4.58113 32.1167C3.92399 32.4299 3.28828 32.3872 2.67399 31.9886C2.05971 31.59 1.75256 31.0205 1.75256 30.2803V10.5063C1.75256 10.0792 1.85256 9.68771 2.05256 9.33181C2.25256 8.97591 2.55256 8.6983 2.95256 8.499C4.15256 7.92955 5.40256 7.50959 6.70256 7.2391C8.00256 6.96862 9.32399 6.83337 10.6668 6.83337C12.4668 6.83337 14.2168 7.07539 15.9168 7.55942C17.6168 8.04344 19.2097 8.78372 20.6954 9.78025C22.1526 8.78372 23.7168 8.04344 25.3883 7.55942C27.0597 7.07539 28.7811 6.83337 30.5526 6.83337C31.8954 6.83337 33.2097 6.96862 34.4954 7.2391C35.7811 7.50959 37.024 7.92955 38.224 8.499C38.624 8.6983 38.9311 8.97591 39.1454 9.33181C39.3597 9.68771 39.4668 10.0792 39.4668 10.5063V30.2803C39.4668 31.0775 39.1454 31.6825 38.5026 32.0954C37.8597 32.5082 37.224 32.5153 36.5954 32.1167C35.624 31.7181 34.6383 31.3978 33.6383 31.1558C32.6383 30.9138 31.6097 30.7927 30.5526 30.7927C29.0097 30.7927 27.4954 31.0205 26.0097 31.4761C24.524 31.9316 23.124 32.5723 21.8097 33.398C21.6668 33.5118 21.5026 33.5901 21.3168 33.6329C21.1311 33.6756 20.924 33.6969 20.6954 33.6969Z" fill="url(#paint0_linear_11_77)"/>
<defs>
<linearGradient id="paint0_linear_11_77" x1="20.6097" y1="6.83337" x2="20.6097" y2="33.6969" gradientUnits="userSpaceOnUse">
<stop stop-color="#E36D6D"/>
<stop offset="0.9999" stop-color="#970A0A" stop-opacity="0.996875"/>
<stop offset="1" stop-color="#970A0A" stop-opacity="0"/>
</linearGradient>
</defs>
</svg>
