<svg width="42" height="41" viewBox="0 0 42 41" fill="none" xmlns="http://www.w3.org/2000/svg">
<path d="M22.7954 37.5833C22.1383 37.5833 21.6597 37.3698 21.3597 36.9427C21.0597 36.5156 21.024 35.9889 21.2526 35.3625L27.5526 18.7062C27.724 18.2507 28.0383 17.8663 28.4954 17.5531C28.9526 17.2399 29.424 17.0833 29.9097 17.0833C30.3954 17.0833 30.874 17.2399 31.3454 17.5531C31.8169 17.8663 32.1383 18.2507 32.3097 18.7062L38.7383 35.1916C38.9954 35.8465 38.9668 36.4088 38.6526 36.8786C38.3383 37.3484 37.8097 37.5833 37.0669 37.5833C36.7526 37.5833 36.4526 37.4836 36.1669 37.2843C35.8811 37.085 35.6811 36.8288 35.5669 36.5156L34.1526 32.202H25.924L24.2954 36.5583C24.1811 36.843 23.9811 37.085 23.6954 37.2843C23.4097 37.4836 23.1097 37.5833 22.7954 37.5833ZM26.8668 29.2125H32.9526L29.9526 20.927H29.8668L26.8668 29.2125ZM12.424 14.6062C12.8526 15.3465 13.324 16.0654 13.8383 16.763C14.3526 17.4605 14.9097 18.1795 15.5097 18.9198C16.7954 17.5816 17.8668 16.1935 18.724 14.7557C19.5811 13.3178 20.3097 11.8159 20.9097 10.25H3.46685C2.98113 10.25 2.57399 10.0862 2.24542 9.75881C1.91685 9.43138 1.75256 9.02565 1.75256 8.54163C1.75256 8.0576 1.91685 7.65187 2.24542 7.32444C2.57399 6.99701 2.98113 6.83329 3.46685 6.83329H13.7526V5.12496C13.7526 4.64093 13.9168 4.2352 14.2454 3.90777C14.574 3.58034 14.9811 3.41663 15.4668 3.41663C15.9526 3.41663 16.3597 3.58034 16.6883 3.90777C17.0168 4.2352 17.1811 4.64093 17.1811 5.12496V6.83329H27.4668C27.9526 6.83329 28.3597 6.99701 28.6883 7.32444C29.0168 7.65187 29.1811 8.0576 29.1811 8.54163C29.1811 9.02565 29.0168 9.43138 28.6883 9.75881C28.3597 10.0862 27.9526 10.25 27.4668 10.25H24.3383C23.7097 12.2145 22.874 14.1435 21.8311 16.0369C20.7883 17.9303 19.5097 19.7312 17.9954 21.4395L22.1954 25.6677L20.9097 29.127L15.4668 23.9166L8.05256 31.3052C7.73828 31.6184 7.35256 31.775 6.89542 31.775C6.43828 31.775 6.05256 31.6041 5.73828 31.2625C5.39542 30.9493 5.22399 30.5649 5.22399 30.1093C5.22399 29.6538 5.39542 29.2552 5.73828 28.9135L13.2811 21.3968C12.5383 20.5142 11.8383 19.6244 11.1811 18.7276C10.524 17.8307 9.92399 16.9125 9.38113 15.9729C9.03828 15.3465 9.00971 14.8055 9.29542 14.35C9.58114 13.8944 10.0954 13.6666 10.8383 13.6666C11.1526 13.6666 11.4597 13.7592 11.7597 13.9442C12.0597 14.1293 12.2811 14.35 12.424 14.6062Z" fill="url(#paint0_linear_11_75)"/>
<defs>
<linearGradient id="paint0_linear_11_75" x1="20.3322" y1="3.41663" x2="20.3322" y2="37.5833" gradientUnits="userSpaceOnUse">
<stop stop-color="#E36D6D"/>
<stop offset="0.9999" stop-color="#970A0A" stop-opacity="0.996875"/>
<stop offset="1" stop-color="#970A0A" stop-opacity="0"/>
</linearGradient>
</defs>
</svg>
