<svg width="38" height="35" viewBox="0 0 38 35" fill="none" xmlns="http://www.w3.org/2000/svg">
<path d="M21.7954 34.5833C21.1383 34.5833 20.6597 34.3698 20.3597 33.9427C20.0597 33.5156 20.024 32.9888 20.2526 32.3625L26.5526 15.7062C26.724 15.2507 27.0383 14.8663 27.4954 14.5531C27.9526 14.2399 28.424 14.0833 28.9097 14.0833C29.3954 14.0833 29.874 14.2399 30.3454 14.5531C30.8169 14.8663 31.1383 15.2507 31.3097 15.7062L37.7383 32.1916C37.9954 32.8465 37.9669 33.4088 37.6526 33.8786C37.3383 34.3484 36.8097 34.5833 36.0668 34.5833C35.7526 34.5833 35.4526 34.4836 35.1669 34.2843C34.8811 34.085 34.6811 33.8288 34.5668 33.5156L33.1526 29.202H24.924L23.2954 33.5583C23.1811 33.843 22.9811 34.085 22.6954 34.2843C22.4097 34.4836 22.1097 34.5833 21.7954 34.5833ZM25.8668 26.2125H31.9526L28.9526 17.927H28.8668L25.8668 26.2125ZM11.424 11.6062C11.8526 12.3465 12.324 13.0654 12.8383 13.763C13.3526 14.4606 13.9097 15.1795 14.5097 15.9198C15.7954 14.5816 16.8668 13.1935 17.724 11.7557C18.5811 10.3178 19.3097 8.81593 19.9097 7.24996H2.46685C1.98113 7.24996 1.57399 7.08624 1.24542 6.75881C0.916849 6.43138 0.752563 6.02565 0.752563 5.54163C0.752563 5.0576 0.916849 4.65187 1.24542 4.32444C1.57399 3.99701 1.98113 3.83329 2.46685 3.83329H12.7526V2.12496C12.7526 1.64093 12.9169 1.2352 13.2454 0.907772C13.574 0.580341 13.9811 0.416626 14.4668 0.416626C14.9526 0.416626 15.3597 0.580341 15.6883 0.907772C16.0168 1.2352 16.1811 1.64093 16.1811 2.12496V3.83329H26.4669C26.9526 3.83329 27.3597 3.99701 27.6883 4.32444C28.0168 4.65187 28.1811 5.0576 28.1811 5.54163C28.1811 6.02565 28.0168 6.43138 27.6883 6.75881C27.3597 7.08624 26.9526 7.24996 26.4669 7.24996H23.3383C22.7097 9.21454 21.874 11.1435 20.8311 13.0369C19.7883 14.9303 18.5097 16.7312 16.9954 18.4395L21.1954 22.6677L19.9097 26.127L14.4668 20.9166L7.05256 28.3052C6.73828 28.6184 6.35256 28.775 5.89542 28.775C5.43828 28.775 5.05256 28.6041 4.73828 28.2625C4.39542 27.9493 4.22399 27.5649 4.22399 27.1093C4.22399 26.6538 4.39542 26.2552 4.73828 25.9135L12.2811 18.3968C11.5383 17.5142 10.8383 16.6244 10.1811 15.7276C9.52399 14.8307 8.92399 13.9125 8.38113 12.9729C8.03828 12.3465 8.00971 11.8055 8.29542 11.35C8.58114 10.8944 9.09542 10.6666 9.83828 10.6666C10.1526 10.6666 10.4597 10.7592 10.7597 10.9442C11.0597 11.1293 11.2811 11.35 11.424 11.6062Z" fill="url(#paint0_linear_11_76)"/>
<defs>
<linearGradient id="paint0_linear_11_76" x1="19.3322" y1="0.416626" x2="19.3322" y2="34.5833" gradientUnits="userSpaceOnUse">
<stop stop-color="#E36D6D"/>
<stop offset="0.9999" stop-color="#970A0A" stop-opacity="0.996875"/>
<stop offset="1" stop-color="#970A0A" stop-opacity="0"/>
</linearGradient>
</defs>
</svg>
