<svg width="436" height="40" viewBox="0 0 436 40" fill="none" xmlns="http://www.w3.org/2000/svg">
<path d="M7.992 5.73602V32.76H20.952L20.136 39H0.119995V5.73602H7.992Z" fill="#141414"/>
<path d="M45.5906 25.752C45.5906 26.808 45.5426 27.72 45.4466 28.488H29.6546C29.9106 30.632 30.5186 32.136 31.4786 33C32.4386 33.864 33.7666 34.296 35.4626 34.296C36.4866 34.296 37.4786 34.12 38.4386 33.768C39.3986 33.384 40.4386 32.808 41.5586 32.04L44.6786 36.264C41.7026 38.632 38.3906 39.816 34.7426 39.816C30.6146 39.816 27.4466 38.6 25.2386 36.168C23.0306 33.736 21.9266 30.472 21.9266 26.376C21.9266 23.784 22.3906 21.464 23.3186 19.416C24.2466 17.336 25.6066 15.704 27.3986 14.52C29.1906 13.304 31.3346 12.696 33.8306 12.696C37.5106 12.696 40.3906 13.848 42.4706 16.152C44.5506 18.456 45.5906 21.656 45.5906 25.752ZM38.1506 23.592C38.0866 19.688 36.7106 17.736 34.0226 17.736C32.7106 17.736 31.6866 18.216 30.9506 19.176C30.2466 20.136 29.8146 21.72 29.6546 23.928H38.1506V23.592Z" fill="#141414"/>
<path d="M60.891 12.696C64.795 12.696 67.851 13.896 70.059 16.296C72.267 18.664 73.371 21.992 73.371 26.28C73.371 29 72.859 31.384 71.835 33.432C70.843 35.448 69.403 37.016 67.515 38.136C65.659 39.256 63.451 39.816 60.891 39.816C57.019 39.816 53.963 38.632 51.723 36.264C49.515 33.864 48.411 30.52 48.411 26.232C48.411 23.512 48.907 21.144 49.899 19.128C50.923 17.08 52.363 15.496 54.219 14.376C56.107 13.256 58.331 12.696 60.891 12.696ZM60.891 18.264C59.355 18.264 58.203 18.92 57.435 20.232C56.667 21.512 56.283 23.512 56.283 26.232C56.283 29.016 56.651 31.048 57.387 32.328C58.155 33.608 59.323 34.248 60.891 34.248C62.427 34.248 63.579 33.608 64.347 32.328C65.115 31.016 65.499 29 65.499 26.28C65.499 23.496 65.115 21.464 64.347 20.184C63.611 18.904 62.459 18.264 60.891 18.264Z" fill="#141414"/>
<path d="M92.8102 12.696C95.0182 12.696 96.7462 13.368 97.9942 14.712C99.2422 16.056 99.8662 17.944 99.8662 20.376V39H92.2822V21.672C92.2822 20.392 92.0742 19.512 91.6582 19.032C91.2742 18.52 90.6822 18.264 89.8822 18.264C88.3462 18.264 86.8742 19.368 85.4662 21.576V39H77.8822V13.512H84.5062L85.0342 16.536C86.1222 15.256 87.2902 14.296 88.5382 13.656C89.8182 13.016 91.2422 12.696 92.8102 12.696Z" fill="#141414"/>
<path d="M125.841 31.608C125.841 32.568 125.969 33.272 126.225 33.72C126.513 34.168 126.961 34.504 127.569 34.728L125.985 39.672C124.417 39.544 123.137 39.208 122.145 38.664C121.153 38.088 120.385 37.192 119.841 35.976C118.177 38.536 115.617 39.816 112.161 39.816C109.633 39.816 107.617 39.08 106.113 37.608C104.609 36.136 103.857 34.216 103.857 31.848C103.857 29.064 104.881 26.936 106.929 25.464C108.977 23.992 111.937 23.256 115.809 23.256H118.401V22.152C118.401 20.648 118.081 19.624 117.441 19.08C116.801 18.504 115.681 18.216 114.081 18.216C113.249 18.216 112.241 18.344 111.057 18.6C109.873 18.824 108.657 19.144 107.409 19.56L105.681 14.568C107.281 13.96 108.913 13.496 110.577 13.176C112.273 12.856 113.841 12.696 115.281 12.696C118.929 12.696 121.601 13.448 123.297 14.952C124.993 16.456 125.841 18.712 125.841 21.72V31.608ZM114.369 34.392C116.097 34.392 117.441 33.576 118.401 31.944V27.432H116.529C114.801 27.432 113.505 27.736 112.641 28.344C111.809 28.952 111.393 29.896 111.393 31.176C111.393 32.2 111.649 33 112.161 33.576C112.705 34.12 113.441 34.392 114.369 34.392Z" fill="#141414"/>
<path d="M145.706 12.792C146.634 12.792 147.482 12.904 148.25 13.128L147.05 20.472C146.09 20.248 145.322 20.136 144.746 20.136C143.242 20.136 142.09 20.664 141.29 21.72C140.522 22.744 139.914 24.296 139.466 26.376V39H131.882V13.512H138.506L139.13 18.456C139.706 16.696 140.57 15.32 141.722 14.328C142.906 13.304 144.234 12.792 145.706 12.792Z" fill="#141414"/>
<path d="M172.543 3.38402V39H165.823L165.439 36.024C163.647 38.552 161.231 39.816 158.191 39.816C155.023 39.816 152.607 38.6 150.943 36.168C149.311 33.736 148.495 30.408 148.495 26.184C148.495 23.592 148.927 21.272 149.791 19.224C150.655 17.176 151.871 15.576 153.439 14.424C155.039 13.272 156.863 12.696 158.911 12.696C161.343 12.696 163.359 13.496 164.959 15.096V2.56802L172.543 3.38402ZM160.543 34.248C162.303 34.248 163.775 33.288 164.959 31.368V20.376C164.351 19.64 163.727 19.096 163.087 18.744C162.479 18.392 161.775 18.216 160.975 18.216C159.567 18.216 158.447 18.872 157.615 20.184C156.783 21.496 156.367 23.512 156.367 26.232C156.367 29.208 156.719 31.288 157.423 32.472C158.159 33.656 159.199 34.248 160.543 34.248Z" fill="#141414"/>
<path d="M189.516 12.696C193.42 12.696 196.476 13.896 198.684 16.296C200.892 18.664 201.996 21.992 201.996 26.28C201.996 29 201.484 31.384 200.46 33.432C199.468 35.448 198.028 37.016 196.14 38.136C194.284 39.256 192.076 39.816 189.516 39.816C185.644 39.816 182.588 38.632 180.348 36.264C178.14 33.864 177.036 30.52 177.036 26.232C177.036 23.512 177.532 21.144 178.524 19.128C179.548 17.08 180.988 15.496 182.844 14.376C184.732 13.256 186.956 12.696 189.516 12.696ZM189.516 18.264C187.98 18.264 186.828 18.92 186.06 20.232C185.292 21.512 184.908 23.512 184.908 26.232C184.908 29.016 185.276 31.048 186.012 32.328C186.78 33.608 187.948 34.248 189.516 34.248C191.052 34.248 192.204 33.608 192.972 32.328C193.74 31.016 194.124 29 194.124 26.28C194.124 23.496 193.74 21.464 192.972 20.184C192.236 18.904 191.084 18.264 189.516 18.264Z" fill="#141414"/>
<path d="M228.746 4.92002C231.242 4.92002 233.402 5.27202 235.226 5.97602C237.082 6.68002 238.762 7.75202 240.266 9.19202L236.618 13.464C234.346 11.608 231.914 10.68 229.322 10.68C227.946 10.68 226.858 10.968 226.058 11.544C225.258 12.088 224.858 12.888 224.858 13.944C224.858 14.68 225.034 15.288 225.386 15.768C225.738 16.216 226.362 16.648 227.258 17.064C228.154 17.48 229.498 17.976 231.29 18.552C234.682 19.64 237.178 20.984 238.778 22.584C240.378 24.152 241.178 26.392 241.178 29.304C241.178 31.384 240.65 33.224 239.594 34.824C238.538 36.392 237.018 37.624 235.034 38.52C233.05 39.384 230.698 39.816 227.978 39.816C225.258 39.816 222.842 39.384 220.73 38.52C218.65 37.656 216.858 36.504 215.354 35.064L219.338 30.696C220.618 31.784 221.93 32.6 223.274 33.144C224.65 33.688 226.138 33.96 227.738 33.96C229.37 33.96 230.65 33.608 231.578 32.904C232.538 32.168 233.018 31.16 233.018 29.88C233.018 29.048 232.842 28.36 232.49 27.816C232.138 27.24 231.53 26.728 230.666 26.28C229.802 25.832 228.554 25.352 226.922 24.84C223.242 23.72 220.618 22.344 219.05 20.712C217.514 19.08 216.746 17.016 216.746 14.52C216.746 12.6 217.258 10.92 218.282 9.48002C219.306 8.00802 220.73 6.88802 222.554 6.12002C224.378 5.32002 226.442 4.92002 228.746 4.92002Z" fill="#141414"/>
<path d="M256.407 12.696C258.167 12.696 259.751 12.952 261.159 13.464C262.567 13.976 263.895 14.76 265.143 15.816L261.879 20.328C260.279 19.112 258.663 18.504 257.031 18.504C255.335 18.504 254.055 19.128 253.191 20.376C252.327 21.624 251.895 23.64 251.895 26.424C251.895 29.112 252.327 31.016 253.191 32.136C254.055 33.256 255.303 33.816 256.935 33.816C257.799 33.816 258.583 33.688 259.287 33.432C259.991 33.144 260.839 32.696 261.831 32.088L265.143 36.792C262.615 38.808 259.751 39.816 256.551 39.816C253.959 39.816 251.719 39.272 249.831 38.184C247.943 37.064 246.487 35.512 245.463 33.528C244.439 31.512 243.927 29.16 243.927 26.472C243.927 23.784 244.439 21.4 245.463 19.32C246.487 17.24 247.943 15.624 249.831 14.472C251.719 13.288 253.911 12.696 256.407 12.696Z" fill="#141414"/>
<path d="M283.263 12.696C285.471 12.696 287.199 13.368 288.447 14.712C289.695 16.056 290.319 17.944 290.319 20.376V39H282.735V21.672C282.735 20.392 282.527 19.512 282.111 19.032C281.695 18.52 281.103 18.264 280.335 18.264C278.799 18.264 277.327 19.352 275.919 21.528V39H268.335V3.38402L275.919 2.61602V16.248C276.975 15.064 278.095 14.184 279.279 13.608C280.463 13 281.791 12.696 283.263 12.696Z" fill="#141414"/>
<path d="M328.775 13.512L323.495 39H314.422L311.014 20.28L307.655 39H298.678L293.254 13.512H300.935L303.574 33.336L307.559 13.512H314.951L318.454 33.336L321.526 13.512H328.775Z" fill="#141414"/>
<path d="M351.591 31.608C351.591 32.568 351.719 33.272 351.975 33.72C352.263 34.168 352.711 34.504 353.319 34.728L351.735 39.672C350.167 39.544 348.887 39.208 347.895 38.664C346.903 38.088 346.135 37.192 345.591 35.976C343.927 38.536 341.367 39.816 337.911 39.816C335.383 39.816 333.367 39.08 331.863 37.608C330.359 36.136 329.607 34.216 329.607 31.848C329.607 29.064 330.631 26.936 332.679 25.464C334.727 23.992 337.687 23.256 341.559 23.256H344.151V22.152C344.151 20.648 343.831 19.624 343.191 19.08C342.551 18.504 341.431 18.216 339.831 18.216C338.999 18.216 337.991 18.344 336.807 18.6C335.623 18.824 334.407 19.144 333.159 19.56L331.431 14.568C333.031 13.96 334.663 13.496 336.327 13.176C338.023 12.856 339.591 12.696 341.031 12.696C344.679 12.696 347.351 13.448 349.047 14.952C350.743 16.456 351.591 18.712 351.591 21.72V31.608ZM340.119 34.392C341.847 34.392 343.191 33.576 344.151 31.944V27.432H342.279C340.551 27.432 339.255 27.736 338.391 28.344C337.559 28.952 337.143 29.896 337.143 31.176C337.143 32.2 337.399 33 337.911 33.576C338.455 34.12 339.191 34.392 340.119 34.392Z" fill="#141414"/>
<path d="M365.216 13.512V39H357.632V13.512H365.216ZM361.376 0.0720215C362.688 0.0720215 363.76 0.488022 364.592 1.32002C365.456 2.12002 365.888 3.14402 365.888 4.39202C365.888 5.64002 365.456 6.68002 364.592 7.51202C363.76 8.31202 362.688 8.71202 361.376 8.71202C360.064 8.71202 358.992 8.31202 358.16 7.51202C357.328 6.68002 356.912 5.64002 356.912 4.39202C356.912 3.14402 357.328 2.12002 358.16 1.32002C358.992 0.488022 360.064 0.0720215 361.376 0.0720215Z" fill="#141414"/>
<path d="M389.131 13.512V18.84L377.611 33.24H389.371L388.699 39H368.827V33.624L380.395 19.224H369.835V13.512H389.131Z" fill="#141414"/>
<path d="M415.012 25.752C415.012 26.808 414.965 27.72 414.868 28.488H399.077C399.333 30.632 399.94 32.136 400.9 33C401.86 33.864 403.188 34.296 404.884 34.296C405.908 34.296 406.901 34.12 407.861 33.768C408.821 33.384 409.86 32.808 410.98 32.04L414.1 36.264C411.124 38.632 407.812 39.816 404.164 39.816C400.036 39.816 396.868 38.6 394.66 36.168C392.452 33.736 391.348 30.472 391.348 26.376C391.348 23.784 391.813 21.464 392.741 19.416C393.669 17.336 395.028 15.704 396.82 14.52C398.612 13.304 400.757 12.696 403.253 12.696C406.933 12.696 409.812 13.848 411.892 16.152C413.972 18.456 415.012 21.656 415.012 25.752ZM407.573 23.592C407.509 19.688 406.132 17.736 403.444 17.736C402.132 17.736 401.108 18.216 400.372 19.176C399.668 20.136 399.237 21.72 399.077 23.928H407.573V23.592Z" fill="#141414"/>
<path d="M433.097 12.792C434.025 12.792 434.873 12.904 435.641 13.128L434.441 20.472C433.481 20.248 432.713 20.136 432.137 20.136C430.633 20.136 429.481 20.664 428.681 21.72C427.913 22.744 427.305 24.296 426.857 26.376V39H419.273V13.512H425.897L426.521 18.456C427.097 16.696 427.961 15.32 429.113 14.328C430.297 13.304 431.625 12.792 433.097 12.792Z" fill="#141414"/>
</svg>
